<svg xmlns="http://www.w3.org/2000/svg" xmlns:xlink="http://www.w3.org/1999/xlink" viewBox="0 0 100 100" xml:space="preserve" width="100px" height="100px" version="1.1" style="shape-rendering:geometricPrecision; text-rendering:geometricPrecision; image-rendering:optimizeQuality; fill-rule:evenodd; clip-rule:evenodd">
	<path fill="#999" d="M34 25l0 1c-10,0 -24,-2 -24,4l0 46c0,2 2,4 5,4l70 0c3,0 5,-2 5,-4l0 -46c0,-6 -13,-4 -24,-4 0,-11 -12,-8 -25,-8 -4,0 -7,3 -7,7z"/>
	<path fill="#fff" d="M29 53c0,-21 27,-29 38,-12 18,26 -24,48 -36,21 -1,-2 -2,-6 -2,-9z"/>
	<path fill="#999" d="M36 52c0,22 28,18 28,2 0,-22 -28,-18 -28,-2z"/>
</svg>